<?xml version="1.0" encoding="UTF-8" standalone="no"?>
<!DOCTYPE svg PUBLIC "-//W3C//DTD SVG 1.1//EN" "http://www.w3.org/Graphics/SVG/1.1/DTD/svg11.dtd">
<svg width="100%" height="100%" viewBox="0 0 1024 1024" version="1.1" xmlns="http://www.w3.org/2000/svg" xmlns:xlink="http://www.w3.org/1999/xlink" xml:space="preserve" xmlns:serif="http://www.serif.com/" style="fill-rule:evenodd;clip-rule:evenodd;stroke-linejoin:round;stroke-miterlimit:2;">
    <path d="M225.13,723.702C225.228,723.985 225.329,724.268 225.434,724.551C225.647,725.128 225.863,725.704 226.08,726.278L214.781,726.703C218.182,725.685 221.633,724.684 225.13,723.702ZM262.987,664.476L331.656,623.534C342.898,616.831 356.726,616.119 368.597,621.631C374.313,624.285 379.219,628.217 383.009,633.023C388.683,632.298 394.798,631.66 401.428,631.121C400.45,470.531 316.453,387.033 322.292,232.654C214.088,396.589 273.953,502.515 262.987,664.476Z" style="fill:rgb(251,203,99);"/>
    <path d="M760.125,682.106C885.156,708.856 967.889,755.212 967.889,807.872C967.889,890.619 763.612,957.799 512,957.799C260.388,957.799 56.111,890.619 56.111,807.872C56.111,760.333 123.535,717.932 228.608,690.459C222.606,700.482 221.15,712.972 225.434,724.551C233.768,747.08 244.646,766.968 258.126,784.139C252.19,789.489 249.022,795.117 249.022,800.926C249.022,825.565 306.046,846.972 389.54,857.673C404.826,860.329 421.079,861.931 438.317,862.46C461.335,864.081 485.634,864.949 510.755,864.949C655.209,864.949 772.488,836.261 772.488,800.926C772.488,785.38 749.789,771.121 712.063,760.027C734.039,736.387 750.028,710.397 760.125,682.106ZM393.333,663.084C431.181,659.732 470.961,657.945 512,657.945C547.652,657.945 582.353,659.294 615.658,661.845C615.234,685.268 606.145,704.533 588.252,719.577C578.682,727.624 567.812,733.659 555.696,737.845C541.09,737.225 526.075,736.903 510.755,736.903C492.041,736.903 473.784,737.384 456.175,738.299C444.838,734.624 434.865,729.39 426.322,722.379C409.69,708.731 399.205,688.709 393.333,663.084Z" style="fill:rgb(251,203,99);"/>
    <path d="M747.211,711.231C767.126,715.333 785.955,719.95 803.531,725.03C803.831,741.486 803.724,758.191 803.234,775.138L716.462,755.174C728.707,741.308 738.95,726.658 747.211,711.231ZM582.193,724.281L545.618,715.865C548.85,707.133 551.917,698.465 554.823,689.857C573.257,690.43 591.361,691.37 609.059,692.656C604.497,702.768 597.568,711.744 588.252,719.577C586.288,721.228 584.269,722.795 582.193,724.281ZM598.719,359.354C596.149,306.904 590.02,253.423 581.792,197.253C721.419,346.421 784.948,492.487 800.054,659.684C789.833,657.057 779.285,654.562 768.436,652.21C771.597,636.659 773.17,620.501 773.17,603.732C773.17,536.593 737.579,470.953 661.118,409.914C661.152,409.942 610.283,368.656 610.283,368.656C610.212,368.599 610.142,368.543 610.071,368.486C606.196,365.384 602.412,362.341 598.719,359.354ZM583.281,584.611C596.086,599.772 605.293,614.893 610.543,630.198C598.283,629.314 585.852,628.592 573.266,628.037C577.042,613.438 580.371,598.973 583.281,584.611Z" style="fill:rgb(251,203,99);"/>
    <g transform="matrix(1.17451,0,0,1.15578,-292.675,397.425)">
        <path d="M472.735,271.151L548.826,225.049C560.761,298.454 604.774,335.157 680.865,335.157C717.866,335.157 748.153,325.086 771.726,304.944C795.299,284.803 807.086,258.917 807.086,227.287C807.086,184.02 780.976,141.051 728.757,98.381L674.599,54.517C631.033,18.71 601.94,-9.563 587.318,-30.301C572.697,-51.04 565.386,-74.389 565.386,-100.349C565.386,-149.286 584.931,-189.718 624.021,-221.647C663.11,-253.575 712.495,-269.539 772.174,-269.539C819.618,-269.539 864.527,-258.2 906.898,-235.522L880.938,-175.992L869.301,-149.584C862.736,-134.068 854.978,-126.31 846.026,-126.31C842.147,-126.31 838.119,-127.802 833.941,-130.786C839.014,-146.302 841.55,-158.685 841.55,-167.936C841.55,-187.033 831.032,-202.997 809.995,-215.828C788.958,-228.659 762.923,-235.074 731.89,-235.074C661.469,-235.074 626.259,-205.981 626.259,-147.794C626.259,-126.906 634.092,-106.839 649.757,-87.593C665.423,-68.347 698.023,-38.582 747.556,1.701L790.972,37.509C846.175,82.268 873.777,129.265 873.777,178.5C873.777,232.808 850.875,278.014 805.071,314.12C759.268,350.226 702.051,368.279 633.42,368.279C549.87,368.279 496.308,335.903 472.735,271.151Z" style="fill-rule:nonzero;"/>
    </g>
    <g transform="matrix(1.17451,0,0,1.15578,-292.675,397.425)">
        <text x="434.242px" y="350.375px" style="font-family:'Apple-Chancery', 'Apple Chancery', cursive;font-style:italic;font-size:916.667px;">S</text>
    </g>
</svg>
